<svg version="1.1" xmlns="http://www.w3.org/2000/svg" width="842" height="596"><rect id="base" width="842" height="596"/> 
           <def>
            <symbol id="tile" viewBox="0 0 10 10">
            
             <rect width="10" height="10" x="0" y="0" id="tile-base"/>
            
              <g id="small">
                <rect width="5" height="5" x="6" y="6" fill="transparent"/>
                <ellipse rx="0.4" ry="1" transform="translate(9 9.9) rotate(90 0 0)"/>
                <ellipse rx="0.4" ry="1" transform="translate(9.2 9.2) rotate(135 0 0)"/>
                <ellipse rx="0.4" ry="1" transform="translate(9.9 9) rotate(0 0 0)"/>
              </g>
              
              <g id="middle">
                <circle r="6" cx="0" cy="10" class="circle"/>
                <circle r="6" cx="10" cy="0" class="circle"/>
                <ellipse rx="0.5" ry="1.5" transform="translate(1.5 9) rotate(60 0 0)"/>
                <ellipse rx="0.5" ry="1.5" transform="translate(9 1.5) rotate(30 0 0)"/>
              </g>

              <g id="big">
                <ellipse rx="0.8" ry="3" transform="translate(3 0) rotate(90 0 0)"/>
                <ellipse rx="0.8" ry="3" transform="translate(2.6 1.6) rotate(118 0 0)"/>
                <ellipse rx="0.8" ry="3" transform="translate(1.6 2.7) rotate(152 0 0)"/>
                <ellipse rx="0.8" ry="3" transform="translate(0 3) rotate(180 0 0)"/>
                <circle r="1" class="circle"/>
                <circle r="8" fill="transparent"/>
              </g>
              
            </symbol>
          </def>
       <use xmlns:xlink="http://www.w3.org/1999/xlink" xlink:href="#tile" width="90" height="90" transform="translate(0 0) &#10;              rotate(0 45 45)"/><use xmlns:xlink="http://www.w3.org/1999/xlink" xlink:href="#tile" width="90" height="90" transform="translate(92.25 0) &#10;              rotate(90 45 45)"/><use xmlns:xlink="http://www.w3.org/1999/xlink" xlink:href="#tile" width="90" height="90" transform="translate(184.5 0) &#10;              rotate(0 45 45)"/><use xmlns:xlink="http://www.w3.org/1999/xlink" xlink:href="#tile" width="90" height="90" transform="translate(276.75 0) &#10;              rotate(90 45 45)"/><use xmlns:xlink="http://www.w3.org/1999/xlink" xlink:href="#tile" width="90" height="90" transform="translate(369 0) &#10;              rotate(0 45 45)"/><use xmlns:xlink="http://www.w3.org/1999/xlink" xlink:href="#tile" width="90" height="90" transform="translate(461.25 0) &#10;              rotate(90 45 45)"/><use xmlns:xlink="http://www.w3.org/1999/xlink" xlink:href="#tile" width="90" height="90" transform="translate(553.5 0) &#10;              rotate(0 45 45)"/><use xmlns:xlink="http://www.w3.org/1999/xlink" xlink:href="#tile" width="90" height="90" transform="translate(645.75 0) &#10;              rotate(90 45 45)"/><use xmlns:xlink="http://www.w3.org/1999/xlink" xlink:href="#tile" width="90" height="90" transform="translate(738 0) &#10;              rotate(0 45 45)"/><use xmlns:xlink="http://www.w3.org/1999/xlink" xlink:href="#tile" width="90" height="90" transform="translate(830.25 0) &#10;              rotate(90 45 45)"/><use xmlns:xlink="http://www.w3.org/1999/xlink" xlink:href="#tile" width="90" height="90" transform="translate(0 92.25) &#10;              rotate(270 45 45)"/><use xmlns:xlink="http://www.w3.org/1999/xlink" xlink:href="#tile" width="90" height="90" transform="translate(92.25 92.25) &#10;              rotate(180 45 45)"/><use xmlns:xlink="http://www.w3.org/1999/xlink" xlink:href="#tile" width="90" height="90" transform="translate(184.5 92.25) &#10;              rotate(270 45 45)"/><use xmlns:xlink="http://www.w3.org/1999/xlink" xlink:href="#tile" width="90" height="90" transform="translate(276.75 92.25) &#10;              rotate(180 45 45)"/><use xmlns:xlink="http://www.w3.org/1999/xlink" xlink:href="#tile" width="90" height="90" transform="translate(369 92.25) &#10;              rotate(270 45 45)"/><use xmlns:xlink="http://www.w3.org/1999/xlink" xlink:href="#tile" width="90" height="90" transform="translate(461.25 92.25) &#10;              rotate(180 45 45)"/><use xmlns:xlink="http://www.w3.org/1999/xlink" xlink:href="#tile" width="90" height="90" transform="translate(553.5 92.25) &#10;              rotate(270 45 45)"/><use xmlns:xlink="http://www.w3.org/1999/xlink" xlink:href="#tile" width="90" height="90" transform="translate(645.75 92.25) &#10;              rotate(180 45 45)"/><use xmlns:xlink="http://www.w3.org/1999/xlink" xlink:href="#tile" width="90" height="90" transform="translate(738 92.25) &#10;              rotate(270 45 45)"/><use xmlns:xlink="http://www.w3.org/1999/xlink" xlink:href="#tile" width="90" height="90" transform="translate(830.25 92.25) &#10;              rotate(180 45 45)"/><use xmlns:xlink="http://www.w3.org/1999/xlink" xlink:href="#tile" width="90" height="90" transform="translate(0 184.5) &#10;              rotate(0 45 45)"/><use xmlns:xlink="http://www.w3.org/1999/xlink" xlink:href="#tile" width="90" height="90" transform="translate(92.25 184.5) &#10;              rotate(90 45 45)"/><use xmlns:xlink="http://www.w3.org/1999/xlink" xlink:href="#tile" width="90" height="90" transform="translate(184.5 184.5) &#10;              rotate(0 45 45)"/><use xmlns:xlink="http://www.w3.org/1999/xlink" xlink:href="#tile" width="90" height="90" transform="translate(276.75 184.5) &#10;              rotate(90 45 45)"/><use xmlns:xlink="http://www.w3.org/1999/xlink" xlink:href="#tile" width="90" height="90" transform="translate(369 184.5) &#10;              rotate(0 45 45)"/><use xmlns:xlink="http://www.w3.org/1999/xlink" xlink:href="#tile" width="90" height="90" transform="translate(461.25 184.5) &#10;              rotate(90 45 45)"/><use xmlns:xlink="http://www.w3.org/1999/xlink" xlink:href="#tile" width="90" height="90" transform="translate(553.5 184.5) &#10;              rotate(0 45 45)"/><use xmlns:xlink="http://www.w3.org/1999/xlink" xlink:href="#tile" width="90" height="90" transform="translate(645.75 184.5) &#10;              rotate(90 45 45)"/><use xmlns:xlink="http://www.w3.org/1999/xlink" xlink:href="#tile" width="90" height="90" transform="translate(738 184.5) &#10;              rotate(0 45 45)"/><use xmlns:xlink="http://www.w3.org/1999/xlink" xlink:href="#tile" width="90" height="90" transform="translate(830.25 184.5) &#10;              rotate(90 45 45)"/><use xmlns:xlink="http://www.w3.org/1999/xlink" xlink:href="#tile" width="90" height="90" transform="translate(0 276.75) &#10;              rotate(270 45 45)"/><use xmlns:xlink="http://www.w3.org/1999/xlink" xlink:href="#tile" width="90" height="90" transform="translate(92.25 276.75) &#10;              rotate(180 45 45)"/><use xmlns:xlink="http://www.w3.org/1999/xlink" xlink:href="#tile" width="90" height="90" transform="translate(184.5 276.75) &#10;              rotate(270 45 45)"/><use xmlns:xlink="http://www.w3.org/1999/xlink" xlink:href="#tile" width="90" height="90" transform="translate(276.75 276.75) &#10;              rotate(180 45 45)"/><use xmlns:xlink="http://www.w3.org/1999/xlink" xlink:href="#tile" width="90" height="90" transform="translate(369 276.75) &#10;              rotate(270 45 45)"/><use xmlns:xlink="http://www.w3.org/1999/xlink" xlink:href="#tile" width="90" height="90" transform="translate(461.25 276.75) &#10;              rotate(180 45 45)"/><use xmlns:xlink="http://www.w3.org/1999/xlink" xlink:href="#tile" width="90" height="90" transform="translate(553.5 276.75) &#10;              rotate(270 45 45)"/><use xmlns:xlink="http://www.w3.org/1999/xlink" xlink:href="#tile" width="90" height="90" transform="translate(645.75 276.75) &#10;              rotate(180 45 45)"/><use xmlns:xlink="http://www.w3.org/1999/xlink" xlink:href="#tile" width="90" height="90" transform="translate(738 276.75) &#10;              rotate(270 45 45)"/><use xmlns:xlink="http://www.w3.org/1999/xlink" xlink:href="#tile" width="90" height="90" transform="translate(830.25 276.75) &#10;              rotate(180 45 45)"/><use xmlns:xlink="http://www.w3.org/1999/xlink" xlink:href="#tile" width="90" height="90" transform="translate(0 369) &#10;              rotate(0 45 45)"/><use xmlns:xlink="http://www.w3.org/1999/xlink" xlink:href="#tile" width="90" height="90" transform="translate(92.25 369) &#10;              rotate(90 45 45)"/><use xmlns:xlink="http://www.w3.org/1999/xlink" xlink:href="#tile" width="90" height="90" transform="translate(184.5 369) &#10;              rotate(0 45 45)"/><use xmlns:xlink="http://www.w3.org/1999/xlink" xlink:href="#tile" width="90" height="90" transform="translate(276.75 369) &#10;              rotate(90 45 45)"/><use xmlns:xlink="http://www.w3.org/1999/xlink" xlink:href="#tile" width="90" height="90" transform="translate(369 369) &#10;              rotate(0 45 45)"/><use xmlns:xlink="http://www.w3.org/1999/xlink" xlink:href="#tile" width="90" height="90" transform="translate(461.25 369) &#10;              rotate(90 45 45)"/><use xmlns:xlink="http://www.w3.org/1999/xlink" xlink:href="#tile" width="90" height="90" transform="translate(553.5 369) &#10;              rotate(0 45 45)"/><use xmlns:xlink="http://www.w3.org/1999/xlink" xlink:href="#tile" width="90" height="90" transform="translate(645.75 369) &#10;              rotate(90 45 45)"/><use xmlns:xlink="http://www.w3.org/1999/xlink" xlink:href="#tile" width="90" height="90" transform="translate(738 369) &#10;              rotate(0 45 45)"/><use xmlns:xlink="http://www.w3.org/1999/xlink" xlink:href="#tile" width="90" height="90" transform="translate(830.25 369) &#10;              rotate(90 45 45)"/><use xmlns:xlink="http://www.w3.org/1999/xlink" xlink:href="#tile" width="90" height="90" transform="translate(0 461.25) &#10;              rotate(270 45 45)"/><use xmlns:xlink="http://www.w3.org/1999/xlink" xlink:href="#tile" width="90" height="90" transform="translate(92.25 461.25) &#10;              rotate(180 45 45)"/><use xmlns:xlink="http://www.w3.org/1999/xlink" xlink:href="#tile" width="90" height="90" transform="translate(184.5 461.25) &#10;              rotate(270 45 45)"/><use xmlns:xlink="http://www.w3.org/1999/xlink" xlink:href="#tile" width="90" height="90" transform="translate(276.75 461.25) &#10;              rotate(180 45 45)"/><use xmlns:xlink="http://www.w3.org/1999/xlink" xlink:href="#tile" width="90" height="90" transform="translate(369 461.25) &#10;              rotate(270 45 45)"/><use xmlns:xlink="http://www.w3.org/1999/xlink" xlink:href="#tile" width="90" height="90" transform="translate(461.25 461.25) &#10;              rotate(180 45 45)"/><use xmlns:xlink="http://www.w3.org/1999/xlink" xlink:href="#tile" width="90" height="90" transform="translate(553.5 461.25) &#10;              rotate(270 45 45)"/><use xmlns:xlink="http://www.w3.org/1999/xlink" xlink:href="#tile" width="90" height="90" transform="translate(645.75 461.25) &#10;              rotate(180 45 45)"/><use xmlns:xlink="http://www.w3.org/1999/xlink" xlink:href="#tile" width="90" height="90" transform="translate(738 461.25) &#10;              rotate(270 45 45)"/><use xmlns:xlink="http://www.w3.org/1999/xlink" xlink:href="#tile" width="90" height="90" transform="translate(830.25 461.25) &#10;              rotate(180 45 45)"/><use xmlns:xlink="http://www.w3.org/1999/xlink" xlink:href="#tile" width="90" height="90" transform="translate(0 553.5) &#10;              rotate(0 45 45)"/><use xmlns:xlink="http://www.w3.org/1999/xlink" xlink:href="#tile" width="90" height="90" transform="translate(92.25 553.5) &#10;              rotate(90 45 45)"/><use xmlns:xlink="http://www.w3.org/1999/xlink" xlink:href="#tile" width="90" height="90" transform="translate(184.5 553.5) &#10;              rotate(0 45 45)"/><use xmlns:xlink="http://www.w3.org/1999/xlink" xlink:href="#tile" width="90" height="90" transform="translate(276.75 553.5) &#10;              rotate(90 45 45)"/><use xmlns:xlink="http://www.w3.org/1999/xlink" xlink:href="#tile" width="90" height="90" transform="translate(369 553.5) &#10;              rotate(0 45 45)"/><use xmlns:xlink="http://www.w3.org/1999/xlink" xlink:href="#tile" width="90" height="90" transform="translate(461.25 553.5) &#10;              rotate(90 45 45)"/><use xmlns:xlink="http://www.w3.org/1999/xlink" xlink:href="#tile" width="90" height="90" transform="translate(553.5 553.5) &#10;              rotate(0 45 45)"/><use xmlns:xlink="http://www.w3.org/1999/xlink" xlink:href="#tile" width="90" height="90" transform="translate(645.75 553.5) &#10;              rotate(90 45 45)"/><use xmlns:xlink="http://www.w3.org/1999/xlink" xlink:href="#tile" width="90" height="90" transform="translate(738 553.5) &#10;              rotate(0 45 45)"/><use xmlns:xlink="http://www.w3.org/1999/xlink" xlink:href="#tile" width="90" height="90" transform="translate(830.25 553.5) &#10;              rotate(90 45 45)"/></svg>